<svg xmlns="http://www.w3.org/2000/svg" xmlns:xlink="http://www.w3.org/1999/xlink" contentStyleType="text/css" data-diagram-type="CLASS" height="678px" preserveAspectRatio="none" style="width:1312px;height:678px;background:#FFFFFF;" version="1.1" viewBox="0 0 1312 678" width="1312px" zoomAndPan="magnify"><?plantuml 1.2026.5?><defs/><g><g class="title" data-source-line="3"><text fill="#000000" font-family="sans-serif" font-size="14" font-weight="700" lengthAdjust="spacing" textLength="378.7656" x="463.2896" y="23.5352">A standard arrives over a system that already works</text></g><!--cluster What the standard requires ? we do not design this--><g class="cluster" data-qualified-name="What the standard requires . we do not design this" data-source-line="5" id="ent0001"><path d="M8.5,43.4883 L386.1123,43.4883 A3.75,3.75 0 0 1 388.6123,45.9883 L395.6123,65.9766 L407.5,65.9766 A2.5,2.5 0 0 1 410,68.4766 L410,389.1383 A2.5,2.5 0 0 1 407.5,391.6383 L8.5,391.6383 A2.5,2.5 0 0 1 6,389.1383 L6,45.9883 A2.5,2.5 0 0 1 8.5,43.4883" fill="none" style="stroke:#000000;stroke-width:1.5;"/><line style="stroke:#000000;stroke-width:1.5;" x1="6" x2="395.6123" y1="65.9766" y2="65.9766"/><text fill="#000000" font-family="sans-serif" font-size="14" font-weight="700" lengthAdjust="spacing" textLength="376.6123" x="10" y="59.0234">What the standard requires &#8212; we do not design this</text></g><!--cluster What we already have ? nobody rewrites this--><g class="cluster" data-qualified-name="What we already have . nobody rewrites this" data-source-line="20" id="ent0007"><path d="M436.5,259.0383 L767.2725,259.0383 A3.75,3.75 0 0 1 769.7725,261.5383 L776.7725,281.5266 L915.5,281.5266 A2.5,2.5 0 0 1 918,284.0266 L918,558.2883 A2.5,2.5 0 0 1 915.5,560.7883 L436.5,560.7883 A2.5,2.5 0 0 1 434,558.2883 L434,261.5383 A2.5,2.5 0 0 1 436.5,259.0383" fill="none" style="stroke:#000000;stroke-width:1.5;"/><line style="stroke:#000000;stroke-width:1.5;" x1="434" x2="776.7725" y1="281.5266" y2="281.5266"/><text fill="#000000" font-family="sans-serif" font-size="14" font-weight="700" lengthAdjust="spacing" textLength="329.7725" x="438" y="274.5734">What we already have &#8212; nobody rewrites this</text></g><!--class RegulatoryReport--><g class="entity" data-qualified-name="What the standard requires . we do not design this.RegulatoryReport" data-source-line="6" id="ent0002"><rect fill="#F1F1F1" height="155.5508" rx="2.5" ry="2.5" style="stroke:#181818;stroke-width:0.5;" width="372.4453" x="21.78" y="78.4883"/><ellipse cx="144.8747" cy="98.7988" fill="#A9DCDF" rx="11" ry="11" style="stroke:#181818;stroke-width:1;"/><path d="M144.738,94.147 L143.5842,99.2188 L145.9001,99.2188 Z M143.2439,91.9058 L146.2404,91.9058 L149.5857,104.2988 L147.1369,104.2988 L146.3733,101.2358 L143.0945,101.2358 L142.3474,104.2988 L139.8987,104.2988 Z " fill="#000000"/><text fill="#000000" font-family="sans-serif" font-size="12" font-style="italic" lengthAdjust="spacing" textLength="79.4707" x="184.5173" y="95.0898">&#171;Abstraction&#187;</text><text fill="#000000" font-family="sans-serif" font-size="14" font-style="italic" lengthAdjust="spacing" textLength="117.7559" x="165.3747" y="111.1563">RegulatoryReport</text><line style="stroke:#181818;stroke-width:0.5;" x1="22.78" x2="393.2253" y1="119.1094" y2="119.1094"/><text fill="#000000" font-family="sans-serif" font-size="14" lengthAdjust="spacing" textLength="160.002" x="27.78" y="136.6445">#Engine : IVendorClient</text><text fill="#000000" font-family="sans-serif" font-size="14" lengthAdjust="spacing" textLength="148.4697" x="27.78" y="153.1328">+EngineName : string</text><line style="stroke:#181818;stroke-width:0.5;" x1="22.78" x2="393.2253" y1="160.0859" y2="160.0859"/><text fill="#000000" font-family="sans-serif" font-size="14" lengthAdjust="spacing" textLength="278.5781" x="27.78" y="177.6211">+Submit(period) : IReadOnlyList&lt;string&gt;</text><text fill="#000000" font-family="sans-serif" font-size="14" lengthAdjust="spacing" textLength="220.6641" x="27.78" y="194.1094">+SetEngine(IVendorClient) : void</text><text fill="#000000" font-family="sans-serif" font-size="14" font-style="italic" lengthAdjust="spacing" textLength="204.7842" x="27.78" y="210.5977">#StatementFor(period) : string</text><text fill="#000000" font-family="sans-serif" font-size="14" lengthAdjust="spacing" textLength="360.4453" x="27.78" y="227.0859">#virtual DecorateRows(rows) : IReadOnlyList&lt;string&gt;</text></g><!--class QuarterlyReport--><g class="entity" data-qualified-name="What the standard requires . we do not design this.QuarterlyReport" data-source-line="14" id="ent0003"><rect fill="#F1F1F1" height="40.6211" rx="2.5" ry="2.5" style="stroke:#181818;stroke-width:0.5;" width="151.3105" x="39.34" y="335.0183"/><ellipse cx="54.34" cy="355.3288" fill="#ADD1B2" rx="11" ry="11" style="stroke:#181818;stroke-width:1;"/><path d="M56.8131,361.4719 Q56.2321,361.7707 55.5929,361.9201 Q54.9538,362.0696 54.2482,362.0696 Q51.7414,362.0696 50.4215,360.4177 Q49.1017,358.7658 49.1017,355.6447 Q49.1017,352.5154 50.4215,350.8635 Q51.7414,349.2116 54.2482,349.2116 Q54.9538,349.2116 55.6012,349.3611 Q56.2487,349.5105 56.8131,349.8093 L56.8131,352.532 Q56.1823,351.9509 55.5888,351.6811 Q54.9953,351.4113 54.3644,351.4113 Q53.0197,351.4113 52.3349,352.478 Q51.6501,353.5446 51.6501,355.6447 Q51.6501,357.7365 52.3349,358.8032 Q53.0197,359.8698 54.3644,359.8698 Q54.9953,359.8698 55.5888,359.6001 Q56.1823,359.3303 56.8131,358.7492 Z " fill="#000000"/><text fill="#000000" font-family="sans-serif" font-size="12" font-style="italic" lengthAdjust="spacing" textLength="123.3105" x="66.34" y="351.6198">&#171;RefinedAbstraction&#187;</text><text fill="#000000" font-family="sans-serif" font-size="14" lengthAdjust="spacing" textLength="108.1787" x="73.9059" y="367.6863">QuarterlyReport</text></g><!--class AuditedReport--><g class="entity" data-qualified-name="What the standard requires . we do not design this.AuditedReport" data-source-line="15" id="ent0004"><rect fill="#F1F1F1" height="40.6211" rx="2.5" ry="2.5" style="stroke:#181818;stroke-width:0.5;" width="151.3105" x="225.34" y="335.0183"/><ellipse cx="240.34" cy="355.3288" fill="#ADD1B2" rx="11" ry="11" style="stroke:#181818;stroke-width:1;"/><path d="M242.8131,361.4719 Q242.2321,361.7707 241.5929,361.9201 Q240.9538,362.0696 240.2482,362.0696 Q237.7414,362.0696 236.4215,360.4177 Q235.1017,358.7658 235.1017,355.6447 Q235.1017,352.5154 236.4215,350.8635 Q237.7414,349.2116 240.2482,349.2116 Q240.9538,349.2116 241.6012,349.3611 Q242.2487,349.5105 242.8131,349.8093 L242.8131,352.532 Q242.1823,351.9509 241.5888,351.6811 Q240.9953,351.4113 240.3644,351.4113 Q239.0197,351.4113 238.3349,352.478 Q237.6501,353.5446 237.6501,355.6447 Q237.6501,357.7365 238.3349,358.8032 Q239.0197,359.8698 240.3644,359.8698 Q240.9953,359.8698 241.5888,359.6001 Q242.1823,359.3303 242.8131,358.7492 Z " fill="#000000"/><text fill="#000000" font-family="sans-serif" font-size="12" font-style="italic" lengthAdjust="spacing" textLength="123.3105" x="252.34" y="351.6198">&#171;RefinedAbstraction&#187;</text><text fill="#000000" font-family="sans-serif" font-size="14" lengthAdjust="spacing" textLength="98.082" x="264.9543" y="367.6863">AuditedReport</text></g><!--class IVendorClient--><g class="entity" data-qualified-name="What we already have . nobody rewrites this.IVendorClient" data-source-line="21" id="ent0008"><rect fill="#F1F1F1" height="122.5742" rx="2.5" ry="2.5" style="stroke:#181818;stroke-width:0.5;" width="346.4688" x="502.77" y="294.0383"/><ellipse cx="625.5947" cy="314.3488" fill="#B4A7E5" rx="11" ry="11" style="stroke:#181818;stroke-width:1;"/><path d="M622.0224,310.614 L622.0224,308.4558 L629.4018,308.4558 L629.4018,310.614 L626.9365,310.614 L626.9365,318.6906 L629.4018,318.6906 L629.4018,320.8488 L622.0224,320.8488 L622.0224,318.6906 L624.4878,318.6906 L624.4878,310.614 Z " fill="#000000"/><text fill="#000000" font-family="sans-serif" font-size="12" font-style="italic" lengthAdjust="spacing" textLength="87.0469" x="648.7309" y="310.6398">&#171;Implementor&#187;</text><text fill="#000000" font-family="sans-serif" font-size="14" font-style="italic" lengthAdjust="spacing" textLength="92.3193" x="646.0947" y="326.7062">IVendorClient</text><line style="stroke:#181818;stroke-width:0.5;" x1="503.77" x2="848.2388" y1="334.6594" y2="334.6594"/><text fill="#000000" font-family="sans-serif" font-size="14" lengthAdjust="spacing" textLength="102.9287" x="508.77" y="352.1945">+Name : string</text><line style="stroke:#181818;stroke-width:0.5;" x1="503.77" x2="848.2388" y1="359.1477" y2="359.1477"/><text fill="#000000" font-family="sans-serif" font-size="14" lengthAdjust="spacing" textLength="170.2559" x="508.77" y="376.6828">+Open(database) : string</text><text fill="#000000" font-family="sans-serif" font-size="14" lengthAdjust="spacing" textLength="334.4688" x="508.77" y="393.1711">+Pull(handle, statement) : IReadOnlyList&lt;string&gt;</text><text fill="#000000" font-family="sans-serif" font-size="14" lengthAdjust="spacing" textLength="159.1611" x="508.77" y="409.6594">+Release(handle) : void</text></g><!--class LegacyEngine--><g class="entity" data-qualified-name="What we already have . nobody rewrites this.LegacyEngine" data-source-line="27" id="ent0009"><rect fill="#F1F1F1" height="65.1094" rx="2.5" ry="2.5" style="stroke:#181818;stroke-width:0.5;" width="249.8838" x="450.06" y="479.6783"/><ellipse cx="503.2099" cy="499.9888" fill="#ADD1B2" rx="11" ry="11" style="stroke:#181818;stroke-width:1;"/><path d="M505.683,506.1319 Q505.102,506.4307 504.4628,506.5801 Q503.8237,506.7296 503.1181,506.7296 Q500.6113,506.7296 499.2914,505.0777 Q497.9716,503.4258 497.9716,500.3047 Q497.9716,497.1754 499.2914,495.5235 Q500.6113,493.8716 503.1181,493.8716 Q503.8237,493.8716 504.4711,494.0211 Q505.1186,494.1705 505.683,494.4693 L505.683,497.192 Q505.0522,496.6109 504.4587,496.3411 Q503.8652,496.0713 503.2343,496.0713 Q501.8896,496.0713 501.2048,497.138 Q500.52,498.2046 500.52,500.3047 Q500.52,502.3965 501.2048,503.4632 Q501.8896,504.5298 503.2343,504.5298 Q503.8652,504.5298 504.4587,504.2601 Q505.0522,503.9903 505.683,503.4092 Z " fill="#000000"/><text fill="#000000" font-family="sans-serif" font-size="12" font-style="italic" lengthAdjust="spacing" textLength="139.084" x="521.7099" y="496.2798">&#171;ConcreteImplementor&#187;</text><text fill="#000000" font-family="sans-serif" font-size="14" lengthAdjust="spacing" textLength="91.752" x="545.3759" y="512.3462">LegacyEngine</text><line style="stroke:#181818;stroke-width:0.5;" x1="451.06" x2="698.9438" y1="520.2994" y2="520.2994"/><text fill="#000000" font-family="sans-serif" font-size="14" lengthAdjust="spacing" textLength="237.8838" x="456.06" y="537.8345">+ReportDirectly(statement) : string</text></g><!--class PurchasedEngine--><g class="entity" data-qualified-name="What we already have . nobody rewrites this.PurchasedEngine" data-source-line="30" id="ent0010"><rect fill="#F1F1F1" height="40.6211" rx="2.5" ry="2.5" style="stroke:#181818;stroke-width:0.5;" width="167.084" x="734.46" y="491.9283"/><ellipse cx="749.46" cy="512.2388" fill="#ADD1B2" rx="11" ry="11" style="stroke:#181818;stroke-width:1;"/><path d="M751.9331,518.3819 Q751.3521,518.6807 750.7129,518.8301 Q750.0738,518.9796 749.3682,518.9796 Q746.8614,518.9796 745.5415,517.3277 Q744.2217,515.6758 744.2217,512.5547 Q744.2217,509.4254 745.5415,507.7735 Q746.8614,506.1216 749.3682,506.1216 Q750.0738,506.1216 750.7212,506.2711 Q751.3687,506.4205 751.9331,506.7193 L751.9331,509.442 Q751.3023,508.8609 750.7088,508.5911 Q750.1153,508.3213 749.4844,508.3213 Q748.1397,508.3213 747.4549,509.388 Q746.7701,510.4546 746.7701,512.5547 Q746.7701,514.6465 747.4549,515.7132 Q748.1397,516.7798 749.4844,516.7798 Q750.1153,516.7798 750.7088,516.5101 Q751.3023,516.2403 751.9331,515.6592 Z " fill="#000000"/><text fill="#000000" font-family="sans-serif" font-size="12" font-style="italic" lengthAdjust="spacing" textLength="139.084" x="761.46" y="508.5298">&#171;ConcreteImplementor&#187;</text><text fill="#000000" font-family="sans-serif" font-size="14" lengthAdjust="spacing" textLength="115.0352" x="773.4844" y="524.5962">PurchasedEngine</text></g><g class="entity" data-qualified-name="GMN14" data-source-line="38" id="ent0015"><path d="M428.93,105.3283 L428.93,152.2683 L394.54,156.2683 L428.93,160.2683 L428.93,207.1916 A0,0 0 0 0 428.93,207.1916 L745.077,207.1916 A0,0 0 0 0 745.077,207.1916 L745.077,115.3283 L735.077,105.3283 L428.93,105.3283 A0,0 0 0 0 428.93,105.3283" fill="#FEFFDD" style="stroke:#181818;stroke-width:0.5;"/><path d="M735.077,105.3283 L735.077,115.3283 L745.077,115.3283 L735.077,105.3283" fill="#FEFFDD" style="stroke:#181818;stroke-width:0.5;"/><text fill="#000000" font-family="sans-serif" font-size="13" font-weight="700" lengthAdjust="spacing" textLength="46.6807" x="434.93" y="122.8966">Submit</text><text fill="#000000" font-family="sans-serif" font-size="13" lengthAdjust="spacing" textLength="241.5918" x="485.7239" y="122.8966">is the operation the regulation names.</text><text fill="#000000" font-family="sans-serif" font-size="13" lengthAdjust="spacing" textLength="295.147" x="434.93" y="138.2072">It exists nowhere in the engine: it is composed</text><text fill="#000000" font-family="sans-serif" font-size="13" lengthAdjust="spacing" textLength="182.2031" x="434.93" y="153.5177">from Open, Pull and Release.</text><text fill="#000000" font-family="sans-serif" font-size="13" lengthAdjust="spacing" textLength="4.1133" x="434.93" y="168.8283">&#160;</text><text fill="#000000" font-family="sans-serif" font-size="13" font-weight="700" lengthAdjust="spacing" textLength="45.3032" x="434.93" y="184.1388">Engine</text><text fill="#000000" font-family="sans-serif" font-size="13" lengthAdjust="spacing" textLength="222.2822" x="484.3465" y="184.1388">is protected, not private, because a</text><text fill="#000000" font-family="sans-serif" font-size="13" lengthAdjust="spacing" textLength="263.8149" x="434.93" y="199.4494">refinement may need the primitives itself.</text></g><g class="entity" data-qualified-name="GMN17" data-source-line="47" id="ent0018"><path d="M936.65,476.6183 L936.65,547.8605 A0,0 0 0 0 936.65,547.8605 L1297.3448,547.8605 A0,0 0 0 0 1297.3448,547.8605 L1297.3448,486.6183 L1287.3448,476.6183 L1021.31,476.6183 L849.03,417.1083 L1013.31,476.6183 L936.65,476.6183 A0,0 0 0 0 936.65,476.6183" fill="#FEFFDD" style="stroke:#181818;stroke-width:0.5;"/><path d="M1287.3448,476.6183 L1287.3448,486.6183 L1297.3448,486.6183 L1287.3448,476.6183" fill="#FEFFDD" style="stroke:#181818;stroke-width:0.5;"/><text fill="#000000" font-family="sans-serif" font-size="13" font-weight="700" lengthAdjust="spacing" textLength="204.4136" x="942.65" y="494.1866">Four members, and no Submit.</text><text fill="#000000" font-family="sans-serif" font-size="13" lengthAdjust="spacing" textLength="109.5605" x="1151.1769" y="494.1866">A test asserts the</text><text fill="#000000" font-family="sans-serif" font-size="13" lengthAdjust="spacing" textLength="321.7817" x="942.65" y="509.4972">whole list. An implementor that grows to mirror its</text><text fill="#000000" font-family="sans-serif" font-size="13" lengthAdjust="spacing" textLength="339.6948" x="942.65" y="524.8077">abstraction is the failure GoF warn about on p. 154 &#8212;</text><text fill="#000000" font-family="sans-serif" font-size="13" lengthAdjust="spacing" textLength="323.1465" x="942.65" y="540.1183">the same interface written twice, for an indirection.</text></g><g class="entity" data-qualified-name="GMN20" data-source-line="54" id="ent0021"><path d="M399.75,607.8583 L399.75,663.7899 A0,0 0 0 0 399.75,663.7899 L750.2568,663.7899 A0,0 0 0 0 750.2568,663.7899 L750.2568,617.8583 L740.2568,607.8583 L579,607.8583 L575,545.1783 L571,607.8583 L399.75,607.8583 A0,0 0 0 0 399.75,607.8583" fill="#FEFFDD" style="stroke:#181818;stroke-width:0.5;"/><path d="M740.2568,607.8583 L740.2568,617.8583 L750.2568,617.8583 L740.2568,607.8583" fill="#FEFFDD" style="stroke:#181818;stroke-width:0.5;"/><text fill="#000000" font-family="sans-serif" font-size="13" font-weight="700" lengthAdjust="spacing" textLength="96.7383" x="405.75" y="625.4266">ReportDirectly</text><text fill="#000000" font-family="sans-serif" font-size="13" lengthAdjust="spacing" textLength="187.0972" x="506.6016" y="625.4266">is a caller from ten years ago.</text><text fill="#000000" font-family="sans-serif" font-size="13" lengthAdjust="spacing" textLength="329.5068" x="405.75" y="640.7372">It still works, untouched, and knows of no standard.</text><text fill="#000000" font-family="sans-serif" font-size="13" lengthAdjust="spacing" textLength="309.5625" x="405.75" y="656.0477">A test runs it, because that is the whole promise.</text></g><g class="entity" data-qualified-name="N1" data-source-line="60" id="ent0023"><path d="M780.24,90.0183 L780.24,222.5027 L1153.7507,222.5027 L1153.7507,100.0183 L1143.7507,90.0183 L780.24,90.0183" fill="#FEFFDD" style="stroke:#181818;stroke-width:0.5;"/><path d="M1143.7507,90.0183 L1143.7507,100.0183 L1153.7507,100.0183 L1143.7507,90.0183" fill="#FEFFDD" style="stroke:#181818;stroke-width:1;"/><text fill="#000000" font-family="sans-serif" font-size="13" font-weight="700" lengthAdjust="spacing" textLength="133.4722" x="786.24" y="107.5866">Bridge, not Adapter.</text><text fill="#000000" font-family="sans-serif" font-size="13" lengthAdjust="spacing" textLength="199.9702" x="923.8254" y="107.5866">One class fitted to one required</text><text fill="#000000" font-family="sans-serif" font-size="13" lengthAdjust="spacing" textLength="347.6167" x="786.24" y="122.8972">interface, after the fact, is an Adapter &#8212; and should be</text><text fill="#000000" font-family="sans-serif" font-size="13" lengthAdjust="spacing" textLength="318.0049" x="786.24" y="138.2077">called one. This is a Bridge because both sides are</text><text fill="#000000" font-family="sans-serif" font-size="13" lengthAdjust="spacing" textLength="350.8032" x="786.24" y="153.5183">families: the standard grows refinements, and a second</text><text fill="#000000" font-family="sans-serif" font-size="13" lengthAdjust="spacing" textLength="132.9326" x="786.24" y="168.8288">engine sits behind it.</text><text fill="#000000" font-family="sans-serif" font-size="13" lengthAdjust="spacing" textLength="4.1133" x="786.24" y="184.1394">&#160;</text><text fill="#000000" font-family="sans-serif" font-size="13" lengthAdjust="spacing" textLength="352.5107" x="786.24" y="199.4499">At 2 x 2 a wrapper per pair costs the same four classes.</text><text fill="#000000" font-family="sans-serif" font-size="13" lengthAdjust="spacing" textLength="230.6802" x="786.24" y="214.7605">That is the last size at which it does.</text></g><!--reverse link RegulatoryReport to QuarterlyReport--><g class="link" data-entity-1="ent0002" data-entity-2="ent0003" data-link-type="extension" data-source-line="16" id="lnk5"><path codeLine="16" d="M163.958,250.5767 C146.738,287.0667 135.25,311.4083 124.21,334.8083" fill="none" id="RegulatoryReport-backto-QuarterlyReport" style="stroke:#181818;stroke-width:1;"/><polygon fill="none" points="171.64,234.2983,158.5319,248.0161,169.3842,253.1374,171.64,234.2983" style="stroke:#181818;stroke-width:1;stroke-linejoin:miter;stroke-miterlimit:10;"/></g><!--reverse link RegulatoryReport to AuditedReport--><g class="link" data-entity-1="ent0002" data-entity-2="ent0004" data-link-type="extension" data-source-line="17" id="lnk6"><path codeLine="17" d="M252.042,250.5767 C269.262,287.0667 280.75,311.4083 291.79,334.8083" fill="none" id="RegulatoryReport-backto-AuditedReport" style="stroke:#181818;stroke-width:1;"/><polygon fill="none" points="244.36,234.2983,246.6158,253.1374,257.4681,248.0161,244.36,234.2983" style="stroke:#181818;stroke-width:1;stroke-linejoin:miter;stroke-miterlimit:10;"/></g><!--reverse link IVendorClient to LegacyEngine--><g class="link" data-entity-1="ent0008" data-entity-2="ent0009" data-link-type="extension" data-source-line="31" id="lnk11"><path codeLine="31" d="M626.5423,432.1886 C612.6223,453.5486 607.36,461.5983 595.63,479.5883" fill="none" id="IVendorClient-backto-LegacyEngine" style="stroke:#181818;stroke-width:1;stroke-dasharray:7,7;"/><polygon fill="none" points="636.37,417.1083,621.5156,428.9128,631.5691,435.4645,636.37,417.1083" style="stroke:#181818;stroke-width:1;stroke-linejoin:miter;stroke-miterlimit:10;"/></g><!--reverse link IVendorClient to PurchasedEngine--><g class="link" data-entity-1="ent0008" data-entity-2="ent0010" data-link-type="extension" data-source-line="32" id="lnk12"><path codeLine="32" d="M743.8767,430.3737 C768.1267,456.8137 782.69,472.7183 799.88,491.4783" fill="none" id="IVendorClient-backto-PurchasedEngine" style="stroke:#181818;stroke-width:1;stroke-dasharray:7,7;"/><polygon fill="none" points="731.71,417.1083,739.4549,434.4293,748.2985,426.3182,731.71,417.1083" style="stroke:#181818;stroke-width:1;stroke-linejoin:miter;stroke-miterlimit:10;"/></g><!--link RegulatoryReport to IVendorClient--><g class="link" data-entity-1="ent0002" data-entity-2="ent0008" data-link-type="aggregation" data-source-line="35" id="lnk13"><path codeLine="35" d="M402.3491,239.0962 C448.9791,258.7362 482.7721,272.9573 527.1421,291.6473" fill="none" id="RegulatoryReport-IVendorClient" style="stroke:#181818;stroke-width:1;"/><polygon fill="none" points="391.29,234.4383,395.2669,240.4536,402.3491,239.0962,398.3722,233.0809,391.29,234.4383" style="stroke:#181818;stroke-width:1;stroke-linejoin:miter;stroke-miterlimit:10;"/><polygon fill="#181818" points="531.75,293.5883,525.0086,286.4082,527.1421,291.6473,521.903,293.7808,531.75,293.5883" style="stroke:#181818;stroke-width:1;stroke-linejoin:miter;stroke-miterlimit:10;"/><text fill="#000000" font-family="sans-serif" font-size="13" lengthAdjust="spacing" textLength="42.2881" x="470.6591" y="283.1691">Engine</text></g><?plantuml-src XLRRRXit47tNLmpS5mMMrQPeNmn1W9hKXO4WJkGWVUOkPxM4Tydja6j5JGpq8_g5_P8SahlMnQdp8CEhdSlXEMU6ydV6TafKIsMZl5-58ARe0r-NpjwQlvb-cjH6Ct7RXHsrt1OiVX9CQ9XMv8EoMeac9MBksPExPo55VkS3jnHg5KWrmahlQElapaycdIhlr8RfxC_uCjIyBoByLsy4LVxxvr_QCcb7rWNIxCt68jJuC_ey8LA53wBAa27JcZTzeuAJtPex9u4MYzKGOPnTBbCEqG_qkzqOotH9rn_PQYUl6iCsf9VdTDiNhGdJZiKu_I86hG7xnZQxDyQ71UePkrcEmHnoiUbHgPXsxumUedB8MzN6dhd0WEJpU8G7kWqAL27voib1zwFmUoEXLmszvj89mjTkwwU2Fy_XVC0d4_I-Ln9OcZq_Qww0J1_Hz1Y-whK9hByN_9JsBnSNfxt-D-weoUJXr1TGV_HDhUuvESAwmk5PU2j8zGU6C1OjArNoiRB0VjrsJMBNoQCHpkcf9ETqqx6TQXLKeJo_E7txhc-QQGsVDZoBXisIVSycQsuOrOR40tVijNd36rNk1cSk5g-SBOKnVj_4dTbwZHafGxER7k5uXBkl_QwNiaP__Nnvn9_GzcK-FmBsxOYJyb749rgxYuibdUM0ivEvcs2ucSHiQiHLJto2fejYcSToyMEn9EFJkd0O4XLTc9uaPyL72rNzF68Dn9-WXeTbjZKBmo0fc1EEIp8X5YjTspd0HqObhaqEc2Mb2NgDuiqd6KW-mmYa4s0lOU1PMb4TjX-qc571fUezp8iaINCJMQPMxSWowuG2mJXIMfScU6wg-GIqn3eyS5Au4008f9nkAW2vShsCYtYMa5etRAzvWhSYJ0VshlSi8N66n6tjiB4Ri3AdbIMpDq3UqfkuJYWuQeq8lWIoWqqRwHtehvHfUb3wXxkYhHAB6DT3G4lTd5x--aiSLMIcnHx7R3-RSMm3GucjAK5LXIuAPQrEVaQBPtWuSIDeE9w5KHT5fMeQt459qTXjnqhm_SODpl31GE1q6Sse1m5zMKSP8v5tDfA0Tc1ql9LYsi2ez3PAjbSvCJVmaWc6BreJJNDo4kNfxSiC_3SnUiFPDokjEj2JTRl1YER1hI9HEghXB8_NeZvSTC1RuTz1aHAOuk7jM33jotWYNxk-qG0Sbq9aHiUIS_g0tPdvod0UZmJAQ_AuyV5EObQbMWFt-SlZkphxPM_nmOgu-d57sOWr3njgmOC5rz0PtALfMWNwcJxXe-09rM6UANsK4GobpvxDxgcYsHCfURG_732ERo5d_8qIBupQb7KSRErYv4Z_Lm00?></g></svg>