<svg xmlns="http://www.w3.org/2000/svg" xmlns:xlink="http://www.w3.org/1999/xlink" contentStyleType="text/css" data-diagram-type="CLASS" height="726px" preserveAspectRatio="none" style="width:1274px;height:726px;background:#FFFFFF;" version="1.1" viewBox="0 0 1274 726" width="1274px" zoomAndPan="magnify"><?plantuml 1.2026.5?><defs/><g><g class="title" data-source-line="2"><text fill="#000000" font-family="sans-serif" font-size="14" font-weight="700" lengthAdjust="spacing" textLength="472.1924" x="397.6262" y="23.5352">After &#8212; the platform is an object the window holds (the solution)</text></g><!--class Window--><g class="entity" data-qualified-name="Window" data-source-line="5" id="ent0001"><rect fill="#F1F1F1" height="172.0391" rx="2.5" ry="2.5" style="stroke:#181818;stroke-width:0.5;" width="262.8926" x="622.1" y="44.4883"/><ellipse cx="711.5609" cy="64.7988" fill="#ADD1B2" rx="11" ry="11" style="stroke:#181818;stroke-width:1;"/><path d="M714.0341,70.9419 Q713.453,71.2407 712.8139,71.3901 Q712.1747,71.5396 711.4691,71.5396 Q708.9623,71.5396 707.6425,69.8877 Q706.3227,68.2358 706.3227,65.1147 Q706.3227,61.9854 707.6425,60.3335 Q708.9623,58.6816 711.4691,58.6816 Q712.1747,58.6816 712.8222,58.8311 Q713.4696,58.9805 714.0341,59.2793 L714.0341,62.002 Q713.4032,61.4209 712.8097,61.1511 Q712.2162,60.8813 711.5854,60.8813 Q710.2406,60.8813 709.5558,61.948 Q708.871,63.0146 708.871,65.1147 Q708.871,67.2065 709.5558,68.2732 Q710.2406,69.3398 711.5854,69.3398 Q712.2162,69.3398 712.8097,69.0701 Q713.4032,68.8003 714.0341,68.2192 Z " fill="#000000"/><text fill="#000000" font-family="sans-serif" font-size="12" font-style="italic" lengthAdjust="spacing" textLength="79.4707" x="730.0609" y="61.0898">&#171;Abstraction&#187;</text><text fill="#000000" font-family="sans-serif" font-size="14" lengthAdjust="spacing" textLength="52.9102" x="743.3412" y="77.1563">Window</text><line style="stroke:#181818;stroke-width:0.5;" x1="623.1" x2="883.9926" y1="85.1094" y2="85.1094"/><text fill="#000000" font-family="sans-serif" font-size="14" lengthAdjust="spacing" textLength="137.1768" x="628.1" y="102.6445">-_imp : IWindowImp</text><text fill="#000000" font-family="sans-serif" font-size="14" lengthAdjust="spacing" textLength="130.915" x="628.1" y="119.1328">#Imp : IWindowImp</text><line style="stroke:#181818;stroke-width:0.5;" x1="623.1" x2="883.9926" y1="126.0859" y2="126.0859"/><text fill="#000000" font-family="sans-serif" font-size="14" lengthAdjust="spacing" textLength="134.8799" x="628.1" y="143.6211">+DrawRect(..) : void</text><text fill="#000000" font-family="sans-serif" font-size="14" lengthAdjust="spacing" textLength="136.2949" x="628.1" y="160.1094">+DrawText(..) : void</text><text fill="#000000" font-family="sans-serif" font-size="14" lengthAdjust="spacing" textLength="187.3867" x="628.1" y="176.5977">+DrawBorder(canvas) : void</text><text fill="#000000" font-family="sans-serif" font-size="14" lengthAdjust="spacing" textLength="250.8926" x="628.1" y="193.0859">+virtual DrawContents(canvas) : void</text><text fill="#000000" font-family="sans-serif" font-size="14" lengthAdjust="spacing" textLength="191.5771" x="628.1" y="209.5742">+SetImp(IWindowImp) : void</text></g><!--class IconWindow--><g class="entity" data-qualified-name="IconWindow" data-source-line="15" id="ent0002"><rect fill="#F1F1F1" height="73.1094" rx="2.5" ry="2.5" style="stroke:#181818;stroke-width:0.5;" width="275.9287" x="615.58" y="309.4983"/><ellipse cx="689.6391" cy="329.8088" fill="#ADD1B2" rx="11" ry="11" style="stroke:#181818;stroke-width:1;"/><path d="M692.1122,335.9519 Q691.5312,336.2507 690.892,336.4001 Q690.2529,336.5496 689.5473,336.5496 Q687.0404,336.5496 685.7206,334.8977 Q684.4008,333.2458 684.4008,330.1247 Q684.4008,326.9954 685.7206,325.3435 Q687.0404,323.6916 689.5473,323.6916 Q690.2529,323.6916 690.9003,323.8411 Q691.5478,323.9905 692.1122,324.2893 L692.1122,327.012 Q691.4814,326.4309 690.8879,326.1611 Q690.2944,325.8913 689.6635,325.8913 Q688.3188,325.8913 687.634,326.958 Q686.9491,328.0246 686.9491,330.1247 Q686.9491,332.2165 687.634,333.2832 Q688.3188,334.3498 689.6635,334.3498 Q690.2944,334.3498 690.8879,334.0801 Q691.4814,333.8103 692.1122,333.2292 Z " fill="#000000"/><text fill="#000000" font-family="sans-serif" font-size="12" font-style="italic" lengthAdjust="spacing" textLength="123.3105" x="708.1391" y="326.0998">&#171;RefinedAbstraction&#187;</text><text fill="#000000" font-family="sans-serif" font-size="14" lengthAdjust="spacing" textLength="81.4023" x="729.0932" y="342.1663">IconWindow</text><line style="stroke:#181818;stroke-width:0.5;" x1="616.58" x2="890.5087" y1="350.1194" y2="350.1194"/><line style="stroke:#181818;stroke-width:0.5;" x1="616.58" x2="890.5087" y1="358.1194" y2="358.1194"/><text fill="#000000" font-family="sans-serif" font-size="14" lengthAdjust="spacing" textLength="263.9287" x="621.58" y="375.6545">+override DrawContents(canvas) : void</text></g><!--class TransientWindow--><g class="entity" data-qualified-name="TransientWindow" data-source-line="18" id="ent0003"><rect fill="#F1F1F1" height="73.1094" rx="2.5" ry="2.5" style="stroke:#181818;stroke-width:0.5;" width="275.9287" x="926.58" y="309.4983"/><ellipse cx="1000.6391" cy="329.8088" fill="#ADD1B2" rx="11" ry="11" style="stroke:#181818;stroke-width:1;"/><path d="M1003.1122,335.9519 Q1002.5312,336.2507 1001.892,336.4001 Q1001.2529,336.5496 1000.5473,336.5496 Q998.0404,336.5496 996.7206,334.8977 Q995.4008,333.2458 995.4008,330.1247 Q995.4008,326.9954 996.7206,325.3435 Q998.0404,323.6916 1000.5473,323.6916 Q1001.2529,323.6916 1001.9003,323.8411 Q1002.5478,323.9905 1003.1122,324.2893 L1003.1122,327.012 Q1002.4814,326.4309 1001.8879,326.1611 Q1001.2944,325.8913 1000.6635,325.8913 Q999.3188,325.8913 998.634,326.958 Q997.9491,328.0246 997.9491,330.1247 Q997.9491,332.2165 998.634,333.2832 Q999.3188,334.3498 1000.6635,334.3498 Q1001.2944,334.3498 1001.8879,334.0801 Q1002.4814,333.8103 1003.1122,333.2292 Z " fill="#000000"/><text fill="#000000" font-family="sans-serif" font-size="12" font-style="italic" lengthAdjust="spacing" textLength="123.3105" x="1019.1391" y="326.0998">&#171;RefinedAbstraction&#187;</text><text fill="#000000" font-family="sans-serif" font-size="14" lengthAdjust="spacing" textLength="116.8193" x="1022.3847" y="342.1663">TransientWindow</text><line style="stroke:#181818;stroke-width:0.5;" x1="927.58" x2="1201.5087" y1="350.1194" y2="350.1194"/><line style="stroke:#181818;stroke-width:0.5;" x1="927.58" x2="1201.5087" y1="358.1194" y2="358.1194"/><text fill="#000000" font-family="sans-serif" font-size="14" lengthAdjust="spacing" textLength="263.9287" x="932.58" y="375.6545">+override DrawContents(canvas) : void</text></g><!--class IWindowImp--><g class="entity" data-qualified-name="IWindowImp" data-source-line="22" id="ent0004"><rect fill="#F1F1F1" height="139.0625" rx="2.5" ry="2.5" style="stroke:#181818;stroke-width:0.5;" width="159.1572" x="111.96" y="276.5283"/><ellipse cx="146.8097" cy="296.8388" fill="#B4A7E5" rx="11" ry="11" style="stroke:#181818;stroke-width:1;"/><path d="M143.2374,293.104 L143.2374,290.9458 L150.6168,290.9458 L150.6168,293.104 L148.1515,293.104 L148.1515,301.1806 L150.6168,301.1806 L150.6168,303.3388 L143.2374,303.3388 L143.2374,301.1806 L145.7027,301.1806 L145.7027,293.104 Z " fill="#000000"/><text fill="#000000" font-family="sans-serif" font-size="12" font-style="italic" lengthAdjust="spacing" textLength="87.0469" x="163.2207" y="293.1298">&#171;Implementor&#187;</text><text fill="#000000" font-family="sans-serif" font-size="14" font-style="italic" lengthAdjust="spacing" textLength="82.8584" x="165.3149" y="309.1963">IWindowImp</text><line style="stroke:#181818;stroke-width:0.5;" x1="112.96" x2="270.1172" y1="317.1494" y2="317.1494"/><text fill="#000000" font-family="sans-serif" font-size="14" lengthAdjust="spacing" textLength="121.2832" x="117.96" y="334.6845">+Platform : string</text><line style="stroke:#181818;stroke-width:0.5;" x1="112.96" x2="270.1172" y1="341.6377" y2="341.6377"/><text fill="#000000" font-family="sans-serif" font-size="14" lengthAdjust="spacing" textLength="144.6963" x="117.96" y="359.1728">+DeviceRect(..) : void</text><text fill="#000000" font-family="sans-serif" font-size="14" lengthAdjust="spacing" textLength="146.1113" x="117.96" y="375.6611">+DeviceText(..) : void</text><text fill="#000000" font-family="sans-serif" font-size="14" lengthAdjust="spacing" textLength="142.3447" x="117.96" y="392.1494">+DeviceRaise() : void</text><text fill="#000000" font-family="sans-serif" font-size="14" lengthAdjust="spacing" textLength="147.1572" x="117.96" y="408.6377">+DeviceLower() : void</text></g><!--class XWindowImp--><g class="entity" data-qualified-name="XWindowImp" data-source-line="30" id="ent0005"><rect fill="#F1F1F1" height="89.5977" rx="2.5" ry="2.5" style="stroke:#181818;stroke-width:0.5;" width="167.084" x="7" y="475.5883"/><ellipse cx="22" cy="495.8988" fill="#ADD1B2" rx="11" ry="11" style="stroke:#181818;stroke-width:1;"/><path d="M24.4731,502.0419 Q23.8921,502.3407 23.2529,502.4901 Q22.6138,502.6396 21.9082,502.6396 Q19.4014,502.6396 18.0815,500.9877 Q16.7617,499.3358 16.7617,496.2147 Q16.7617,493.0854 18.0815,491.4335 Q19.4014,489.7816 21.9082,489.7816 Q22.6138,489.7816 23.2612,489.9311 Q23.9087,490.0805 24.4731,490.3793 L24.4731,493.102 Q23.8423,492.5209 23.2488,492.2511 Q22.6553,491.9813 22.0244,491.9813 Q20.6797,491.9813 19.9949,493.048 Q19.3101,494.1146 19.3101,496.2147 Q19.3101,498.3065 19.9949,499.3732 Q20.6797,500.4398 22.0244,500.4398 Q22.6553,500.4398 23.2488,500.1701 Q23.8423,499.9003 24.4731,499.3192 Z " fill="#000000"/><text fill="#000000" font-family="sans-serif" font-size="12" font-style="italic" lengthAdjust="spacing" textLength="139.084" x="34" y="492.1898">&#171;ConcreteImplementor&#187;</text><text fill="#000000" font-family="sans-serif" font-size="14" lengthAdjust="spacing" textLength="87.5889" x="59.7476" y="508.2563">XWindowImp</text><line style="stroke:#181818;stroke-width:0.5;" x1="8" x2="173.084" y1="516.2094" y2="516.2094"/><line style="stroke:#181818;stroke-width:0.5;" x1="8" x2="173.084" y1="524.2094" y2="524.2094"/><text fill="#000000" font-family="sans-serif" font-size="14" lengthAdjust="spacing" textLength="144.6963" x="13" y="541.7445">+DeviceRect(..) : void</text><text fill="#000000" font-family="sans-serif" font-size="14" lengthAdjust="spacing" textLength="146.1113" x="13" y="558.2328">+DeviceText(..) : void</text></g><!--class PMWindowImp--><g class="entity" data-qualified-name="PMWindowImp" data-source-line="34" id="ent0006"><rect fill="#F1F1F1" height="89.5977" rx="2.5" ry="2.5" style="stroke:#181818;stroke-width:0.5;" width="167.084" x="209" y="475.5883"/><ellipse cx="224" cy="495.8988" fill="#ADD1B2" rx="11" ry="11" style="stroke:#181818;stroke-width:1;"/><path d="M226.4731,502.0419 Q225.8921,502.3407 225.2529,502.4901 Q224.6138,502.6396 223.9082,502.6396 Q221.4014,502.6396 220.0815,500.9877 Q218.7617,499.3358 218.7617,496.2147 Q218.7617,493.0854 220.0815,491.4335 Q221.4014,489.7816 223.9082,489.7816 Q224.6138,489.7816 225.2612,489.9311 Q225.9087,490.0805 226.4731,490.3793 L226.4731,493.102 Q225.8423,492.5209 225.2488,492.2511 Q224.6553,491.9813 224.0244,491.9813 Q222.6797,491.9813 221.9949,493.048 Q221.3101,494.1146 221.3101,496.2147 Q221.3101,498.3065 221.9949,499.3732 Q222.6797,500.4398 224.0244,500.4398 Q224.6553,500.4398 225.2488,500.1701 Q225.8423,499.9003 226.4731,499.3192 Z " fill="#000000"/><text fill="#000000" font-family="sans-serif" font-size="12" font-style="italic" lengthAdjust="spacing" textLength="139.084" x="236" y="492.1898">&#171;ConcreteImplementor&#187;</text><text fill="#000000" font-family="sans-serif" font-size="14" lengthAdjust="spacing" textLength="98.6221" x="256.231" y="508.2563">PMWindowImp</text><line style="stroke:#181818;stroke-width:0.5;" x1="210" x2="375.084" y1="516.2094" y2="516.2094"/><line style="stroke:#181818;stroke-width:0.5;" x1="210" x2="375.084" y1="524.2094" y2="524.2094"/><text fill="#000000" font-family="sans-serif" font-size="14" lengthAdjust="spacing" textLength="144.6963" x="215" y="541.7445">+DeviceRect(..) : void</text><text fill="#000000" font-family="sans-serif" font-size="14" lengthAdjust="spacing" textLength="146.1113" x="215" y="558.2328">+DeviceText(..) : void</text></g><g class="entity" data-qualified-name="GMN12" data-source-line="46" id="ent0013"><path d="M306.61,295.1283 L306.61,342.0583 L271.28,346.0583 L306.61,350.0583 L306.61,396.9916 A0,0 0 0 0 306.61,396.9916 L580.4689,396.9916 A0,0 0 0 0 580.4689,396.9916 L580.4689,305.1283 L570.4689,295.1283 L306.61,295.1283 A0,0 0 0 0 306.61,295.1283" fill="#FEFFDD" style="stroke:#181818;stroke-width:0.5;"/><path d="M570.4689,295.1283 L570.4689,305.1283 L580.4689,305.1283 L570.4689,295.1283" fill="#FEFFDD" style="stroke:#181818;stroke-width:0.5;"/><text fill="#000000" font-family="sans-serif" font-size="13" font-weight="700" lengthAdjust="spacing" textLength="103.2637" x="312.61" y="312.6966">Primitives only.</text><text fill="#000000" font-family="sans-serif" font-size="13" lengthAdjust="spacing" textLength="243.9468" x="312.61" y="328.0072">DeviceRect, DeviceText &#8212; the smallest</text><text fill="#000000" font-family="sans-serif" font-size="13" lengthAdjust="spacing" textLength="241.9346" x="312.61" y="343.3177">things a window system can be asked.</text><text fill="#000000" font-family="sans-serif" font-size="13" lengthAdjust="spacing" textLength="218.9878" x="312.61" y="358.6283">There is no DeviceIcon here, and if</text><text fill="#000000" font-family="sans-serif" font-size="13" lengthAdjust="spacing" textLength="252.8589" x="312.61" y="373.9388">one appeared the two hierarchies would</text><text fill="#000000" font-family="sans-serif" font-size="13" lengthAdjust="spacing" textLength="168.4731" x="312.61" y="389.2494">have grown back together.</text></g><g class="entity" data-qualified-name="GMN15" data-source-line="55" id="ent0016"><path d="M177.34,625.1883 L177.34,711.741 A0,0 0 0 0 177.34,711.741 L407.7428,711.741 A0,0 0 0 0 407.7428,711.741 L407.7428,635.1883 L397.7428,625.1883 L296.54,625.1883 L292.54,565.6083 L288.54,625.1883 L177.34,625.1883 A0,0 0 0 0 177.34,625.1883" fill="#FEFFDD" style="stroke:#181818;stroke-width:0.5;"/><path d="M397.7428,625.1883 L397.7428,635.1883 L407.7428,635.1883 L397.7428,625.1883" fill="#FEFFDD" style="stroke:#181818;stroke-width:0.5;"/><text fill="#000000" font-family="sans-serif" font-size="13" lengthAdjust="spacing" textLength="188.1255" x="183.34" y="642.7566">PM has no rectangle call, so it</text><text fill="#000000" font-family="sans-serif" font-size="13" lengthAdjust="spacing" textLength="209.4028" x="183.34" y="658.0672">builds one from a polyline: seven</text><text fill="#000000" font-family="sans-serif" font-size="13" lengthAdjust="spacing" textLength="204.2739" x="183.34" y="673.3777">journal entries against X's three,</text><text fill="#000000" font-family="sans-serif" font-size="13" lengthAdjust="spacing" textLength="131.9868" x="183.34" y="688.6883">for the same picture.</text><text fill="#000000" font-family="sans-serif" font-size="13" lengthAdjust="spacing" textLength="179.0547" x="183.34" y="703.9988">The window never finds out.</text></g><g class="entity" data-qualified-name="GMN18" data-source-line="63" id="ent0019"><path d="M265.73,48.9483 L265.73,212.0538 A0,0 0 0 0 265.73,212.0538 L587.3487,212.0538 A0,0 0 0 0 587.3487,212.0538 L587.3487,134.5083 L621.8,130.5083 L587.3487,126.5083 L587.3487,58.9483 L577.3487,48.9483 L265.73,48.9483 A0,0 0 0 0 265.73,48.9483" fill="#FEFFDD" style="stroke:#181818;stroke-width:0.5;"/><path d="M577.3487,48.9483 L577.3487,58.9483 L587.3487,58.9483 L577.3487,48.9483" fill="#FEFFDD" style="stroke:#181818;stroke-width:0.5;"/><text fill="#000000" font-family="sans-serif" font-size="13" font-weight="700" lengthAdjust="spacing" textLength="196.8599" x="271.73" y="66.5166">The reference is private here.</text><text fill="#000000" font-family="sans-serif" font-size="13" lengthAdjust="spacing" textLength="260.0952" x="271.73" y="81.8272">Refinements reach it through a protected</text><text fill="#000000" font-family="sans-serif" font-size="13" lengthAdjust="spacing" textLength="57.9985" x="271.73" y="97.1377">property.</text><text fill="#000000" font-family="sans-serif" font-size="13" lengthAdjust="spacing" textLength="300.6187" x="271.73" y="112.4483">Nothing outside the hierarchy can route around</text><text fill="#000000" font-family="sans-serif" font-size="13" lengthAdjust="spacing" textLength="214.4937" x="271.73" y="127.7588">the window straight to the device.</text><text fill="#000000" font-family="sans-serif" font-size="13" lengthAdjust="spacing" textLength="4.1133" x="271.73" y="143.0694">&#160;</text><text fill="#000000" font-family="sans-serif" font-size="13" lengthAdjust="spacing" textLength="298.7715" x="271.73" y="158.3799">Next door, FileManager makes the other choice</text><text fill="#000000" font-family="sans-serif" font-size="13" lengthAdjust="spacing" textLength="286.3301" x="271.73" y="173.6905">and holds it protected. Both are defensible &#8212;</text><text fill="#000000" font-family="sans-serif" font-size="13" lengthAdjust="spacing" textLength="300.0664" x="271.73" y="189.001">the question is how much of the implementor a</text><text fill="#000000" font-family="sans-serif" font-size="13" lengthAdjust="spacing" textLength="167.4258" x="271.73" y="204.3116">refinement is trusted with.</text></g><g class="entity" data-qualified-name="N1" data-source-line="76" id="ent0021"><path d="M919.64,56.6083 L919.64,204.4032 L1259.4447,204.4032 L1259.4447,66.6083 L1249.4447,56.6083 L919.64,56.6083" fill="#FEFFDD" style="stroke:#181818;stroke-width:0.5;"/><path d="M1249.4447,56.6083 L1249.4447,66.6083 L1259.4447,66.6083 L1249.4447,56.6083" fill="#FEFFDD" style="stroke:#181818;stroke-width:1;"/><text fill="#000000" font-family="sans-serif" font-size="13" font-weight="700" lengthAdjust="spacing" textLength="273.2158" x="925.64" y="74.1766">Two hierarchies, growing independently.</text><text fill="#000000" font-family="sans-serif" font-size="13" lengthAdjust="spacing" textLength="4.1133" x="925.64" y="89.4872">&#160;</text><text fill="#000000" font-family="sans-serif" font-size="13" lengthAdjust="spacing" textLength="282.4961" x="937.9798" y="104.7977">3 window kinds  +  2 platforms  =  5 classes</text><text fill="#000000" font-family="sans-serif" font-size="13" lengthAdjust="spacing" textLength="265.2305" x="937.9798" y="120.1083">a 3rd platform  -&gt;  6        a 4th kind -&gt; 6</text><text fill="#000000" font-family="sans-serif" font-size="13" lengthAdjust="spacing" textLength="4.1133" x="925.64" y="135.4188">&#160;</text><text fill="#000000" font-family="sans-serif" font-size="13" lengthAdjust="spacing" textLength="301.4312" x="925.64" y="150.7294">And the link is a field, so `window.SetImp(pm)`</text><text fill="#000000" font-family="sans-serif" font-size="13" lengthAdjust="spacing" textLength="133.2373" x="925.64" y="166.0399">moves a window that</text><text fill="#000000" font-family="sans-serif" font-size="13" font-weight="700" lengthAdjust="spacing" textLength="93.0122" x="1062.9906" y="166.0399">already exists</text><text fill="#000000" font-family="sans-serif" font-size="13" lengthAdjust="spacing" textLength="65.6855" x="1160.1161" y="166.0399">to another</text><text fill="#000000" font-family="sans-serif" font-size="13" lengthAdjust="spacing" textLength="318.8047" x="925.64" y="181.3505">platform &#8212; which the design on the left cannot do</text><text fill="#000000" font-family="sans-serif" font-size="13" lengthAdjust="spacing" textLength="77.5811" x="925.64" y="196.661">at any price.</text></g><!--link Window to IWindowImp--><g class="link" data-entity-1="ent0001" data-entity-2="ent0004" data-link-type="aggregation" data-source-line="39" id="lnk7"><path codeLine="39" d="M610.7782,214.3538 C605.0182,216.8338 610.27,214.4083 604.54,216.5283 C470.83,265.8483 420.85,221.1283 289.54,276.5283 C283.52,279.0683 281.8826,279.6297 275.9426,282.8597" fill="none" id="Window-IWindowImp" style="stroke:#181818;stroke-width:1;"/><polygon fill="none" points="621.8,209.6083,614.7073,208.3071,610.7782,214.3538,617.8709,215.655,621.8,209.6083" style="stroke:#181818;stroke-width:1;stroke-linejoin:miter;stroke-miterlimit:10;"/><polygon fill="#181818" points="271.55,285.2483,281.3675,284.4629,275.9426,282.8597,277.5458,277.4348,271.55,285.2483" style="stroke:#181818;stroke-width:1;stroke-linejoin:miter;stroke-miterlimit:10;"/><text fill="#000000" font-family="sans-serif" font-size="13" lengthAdjust="spacing" textLength="30.5767" x="279.1442" y="277.3855">_imp</text></g><!--reverse link Window to IconWindow--><g class="link" data-entity-1="ent0001" data-entity-2="ent0002" data-link-type="extension" data-source-line="40" id="lnk8"><path codeLine="40" d="M753.54,234.8283 C753.54,267.0083 753.54,283.8983 753.54,309.1483" fill="none" id="Window-backto-IconWindow" style="stroke:#181818;stroke-width:1;"/><polygon fill="none" points="753.54,216.8283,747.54,234.8283,759.54,234.8283,753.54,216.8283" style="stroke:#181818;stroke-width:1;stroke-linejoin:miter;stroke-miterlimit:10;"/></g><!--reverse link Window to TransientWindow--><g class="link" data-entity-1="ent0001" data-entity-2="ent0003" data-link-type="extension" data-source-line="41" id="lnk9"><path codeLine="41" d="M892.6381,227.018 C939.4981,259.198 975.48,283.8983 1012.25,309.1483" fill="none" id="Window-backto-TransientWindow" style="stroke:#181818;stroke-width:1;"/><polygon fill="none" points="877.8,216.8283,889.2415,231.964,896.0347,222.072,877.8,216.8283" style="stroke:#181818;stroke-width:1;stroke-linejoin:miter;stroke-miterlimit:10;"/></g><!--reverse link IWindowImp to XWindowImp--><g class="link" data-entity-1="ent0004" data-entity-2="ent0005" data-link-type="extension" data-source-line="42" id="lnk10"><path codeLine="42" d="M142.231,431.1892 C130.461,451.2792 127.01,457.1683 116.39,475.2883" fill="none" id="IWindowImp-backto-XWindowImp" style="stroke:#181818;stroke-width:1;stroke-dasharray:7,7;"/><polygon fill="none" points="151.33,415.6583,137.0541,428.1562,147.408,434.2222,151.33,415.6583" style="stroke:#181818;stroke-width:1;stroke-linejoin:miter;stroke-miterlimit:10;"/></g><!--reverse link IWindowImp to PMWindowImp--><g class="link" data-entity-1="ent0004" data-entity-2="ent0006" data-link-type="extension" data-source-line="43" id="lnk11"><path codeLine="43" d="M240.849,431.1892 C252.619,451.2792 256.07,457.1683 266.7,475.2883" fill="none" id="IWindowImp-backto-PMWindowImp" style="stroke:#181818;stroke-width:1;stroke-dasharray:7,7;"/><polygon fill="none" points="231.75,415.6583,235.672,434.2222,246.0259,428.1562,231.75,415.6583" style="stroke:#181818;stroke-width:1;stroke-linejoin:miter;stroke-miterlimit:10;"/></g><?plantuml-src jLRRRXit47tVhnYa3xKHQNj9cuV05U2qA62W2Op4GFFMKBkpMaQxv7R8bQ8q0VeH_S9-ISzmBvOheK21LW-sHGvdvbmuTDXQrnanBHMD2U4wHh7hFl9DuTrh-u7foopQs31TLv65_lpz3uerKzUOM7bfoGOoZlpw7HSnxUojA_sUQj-KWIvq9VYcZzQxoopBKX7wUOYvkhfUXoYcqDtLYdxBY9RqYsqxUaOtGz1Dss7rCxevNNnCFuZPlqBXYpo_nExEst9Ul-FtPzUVUobPBWhZTYOysDrPYRrfKjJttaLsCPoBUyqH3LpSzpBlVfe0Adipo5TSMSVbATR7v7SiOal-nvgVngHtObomYFWFCsSMErAPWe-uHMRyRBZ56Izpojj9ysU4UjPj1avvPmi-gqBQEQl3SCROm1TdDdxoUoXqokgRumw1gH26KSzq-czxcXY-VV7_LSX6rVnokQ97Ql97ntQUDFsuN1wvvy7ot_JFZWNxcET7z9ni7G7BCkSZazXD7SbN3w_KrNfrAxQrqUuua7VD8R_wOht2pZtWnH74UHw4rZGDXuZ8MCCQc0hJ90Y741dZ1MDYpMJ2biiSONSr2-luS7vCgB19LnSOAINP2b7UuKZNiH4kKw6uzrHR5YC5VWNQ-xvHuckpOzg8twEAAROK_OOHBtd6oAMGH-1h7wDl5VanAOHlo96w4O0qReEPLm3K0lEBh09RzrPdchPK2L8OwdnpQ703SI5unmunxtml3ZC4AecsPpR6kX3fpUS1xGlp0a6uH0DffiKajKNiXKTA9j8SyWdXTcl1FfwWQBXAwerMIChfSU4A1BeYCTk9tHa4AwUJZiF8K3S719kY1ZRjpFURMX49iXUHbLBytR74WxRsqYTPjPUWKqNRdsGu96sH0QKCVhaokM36eiCfkItwj5mcjVDCqwg7IkzbGJ_QXbyOPpR0tPejXnJhLKCgQeyJY5TV32yBkfvxpUavub1RSrUCIxA6UB3csCUlFPo9uQYSr6YexG4RvEcUlR_SP10lCpyQ7QM7UKiWYVM91d3Bowz6wX-wSf6Sg7o10Uvm3lcckuGJ-3oPsDacZJ4uwElvLSNtxuY-7Pva3iC9Gq-al7zu2ME4djBuCVGD6D1SklvKYroxuSR0eDlqJCDEt9J9ps-7uldub7NjvLkSQBtU-ldYnjf41MSQ6AKy4B-t8GR5e4eQbxHHdqmjwJ3OrnRa3Z87ky6_1cxeGWqBd-0K15Sf8r8SrAFgXPdQlm00?></g></svg>